<svg id="Layer_1" width="1000" data-name="Layer 1" xmlns="http://www.w3.org/2000/svg" viewBox="0 0 124.49 31.64">
                            <defs>
                                <style>
                                    .cls-1 {
                                        fill: #0082cb;
                                    }

                                    .cls-2 {
                                        fill: #ffd040;
                                    }
                                </style>
                            </defs>
                            <path class="cls-1" d="M38.79,15.71A3.24,3.24,0,0,0,36,14.27a3,3,0,0,0-1.39.35A1.2,1.2,0,0,0,34,15.77a1,1,0,0,0,.56.94,6,6,0,0,0,1.41.5l1.83.43a7,7,0,0,1,1.84.67A4,4,0,0,1,41,19.56a3.69,3.69,0,0,1,.56,2.18A4,4,0,0,1,41,23.87a4.26,4.26,0,0,1-1.41,1.39,6.18,6.18,0,0,1-2,.77,10,10,0,0,1-2.17.23,9.17,9.17,0,0,1-3-.47A5.71,5.71,0,0,1,30,24.09l2.35-2.21a6.52,6.52,0,0,0,1.46,1.25,3.45,3.45,0,0,0,1.89.49,3.77,3.77,0,0,0,.8-.09,2.78,2.78,0,0,0,.76-.29,1.69,1.69,0,0,0,.57-.52,1.16,1.16,0,0,0,.22-.72,1.2,1.2,0,0,0-.55-1.09,5.38,5.38,0,0,0-1.42-.57c-.56-.15-1.18-.28-1.83-.41a7,7,0,0,1-1.84-.62A3.78,3.78,0,0,1,31,18.12,3.54,3.54,0,0,1,30.44,16a4.16,4.16,0,0,1,.48-2,4.52,4.52,0,0,1,1.28-1.43A5.65,5.65,0,0,1,34,11.71a8.14,8.14,0,0,1,2.09-.26,8.44,8.44,0,0,1,2.79.48,4.63,4.63,0,0,1,2.23,1.66Z"/>
                            <path class="cls-1" d="M54,16a5.61,5.61,0,0,0-1.3-1,2.81,2.81,0,0,0-1.37-.38,4.19,4.19,0,0,0-1.74.35,4.05,4.05,0,0,0-1.31.95,3.89,3.89,0,0,0-.82,1.35,4.63,4.63,0,0,0,0,3.17,4,4,0,0,0,.82,1.36,4,4,0,0,0,3,1.29,3.42,3.42,0,0,0,1.52-.34,3.34,3.34,0,0,0,1.21-1l2.35,2.52a5.35,5.35,0,0,1-1.22.92,8.14,8.14,0,0,1-1.4.61,8.34,8.34,0,0,1-1.35.34,7,7,0,0,1-1.11.1,8.4,8.4,0,0,1-3-.53,7.24,7.24,0,0,1-2.43-1.49,7.11,7.11,0,0,1-1.64-2.34,7.5,7.5,0,0,1-.6-3,7.51,7.51,0,0,1,.6-3,7.11,7.11,0,0,1,1.64-2.34A7.24,7.24,0,0,1,48.28,12a8.4,8.4,0,0,1,3-.53A7.69,7.69,0,0,1,54,12a6.26,6.26,0,0,1,2.4,1.63Z"/>
                            <path class="cls-1" d="M58.05,7a2,2,0,0,1,.63-1.49,2.16,2.16,0,0,1,1.6-.63,2.33,2.33,0,0,1,1.63.6A2,2,0,0,1,62.57,7a2,2,0,0,1-.66,1.51,2.33,2.33,0,0,1-1.63.6,2.16,2.16,0,0,1-1.6-.63A2,2,0,0,1,58.05,7Zm.5,4.79h3.52V25.91H58.55Z"/>
                            <path class="cls-2" d="M73.66,15.71a3.24,3.24,0,0,0-2.77-1.44,3,3,0,0,0-1.38.35,1.2,1.2,0,0,0-.67,1.15,1,1,0,0,0,.55.94,6.29,6.29,0,0,0,1.42.5l1.83.43a7.09,7.09,0,0,1,1.84.67,4,4,0,0,1,1.41,1.25,3.76,3.76,0,0,1,.56,2.18,4,4,0,0,1-.54,2.13,4.35,4.35,0,0,1-1.41,1.39,6.18,6.18,0,0,1-2,.77,10.1,10.1,0,0,1-2.18.23,9.15,9.15,0,0,1-3-.47,5.71,5.71,0,0,1-2.47-1.7l2.35-2.21a6.47,6.47,0,0,0,1.45,1.25,3.49,3.49,0,0,0,1.9.49,3.68,3.68,0,0,0,.79-.09,2.85,2.85,0,0,0,.77-.29,1.9,1.9,0,0,0,.57-.52,1.16,1.16,0,0,0,.22-.72,1.19,1.19,0,0,0-.56-1.09A5.17,5.17,0,0,0,71,20.34c-.57-.15-1.18-.28-1.84-.41a6.93,6.93,0,0,1-1.83-.62,3.78,3.78,0,0,1-1.41-1.19A3.47,3.47,0,0,1,65.31,16a4.16,4.16,0,0,1,.48-2,4.4,4.4,0,0,1,1.28-1.43,5.7,5.7,0,0,1,1.82-.82A8.25,8.25,0,0,1,71,11.45a8.44,8.44,0,0,1,2.79.48A4.61,4.61,0,0,1,76,13.59Z"/>
                            <path class="cls-2" d="M79,11.8h3.35V14h.06A4.81,4.81,0,0,1,84,12.23a4.59,4.59,0,0,1,2.81-.78q3.32,0,4.41,2.61a5,5,0,0,1,1.91-2,5.6,5.6,0,0,1,2.74-.63,5.35,5.35,0,0,1,2.38.47,4.14,4.14,0,0,1,1.57,1.29,5.23,5.23,0,0,1,.86,1.93,9.86,9.86,0,0,1,.27,2.36v8.41H97.38v-8a7.36,7.36,0,0,0-.11-1.25,2.89,2.89,0,0,0-.42-1.05,2,2,0,0,0-.79-.72,2.69,2.69,0,0,0-1.29-.27,2.87,2.87,0,0,0-1.4.31,2.77,2.77,0,0,0-.94.82,3.42,3.42,0,0,0-.53,1.18,5.52,5.52,0,0,0-.16,1.34v7.64H88.21V17.5a3.56,3.56,0,0,0-.56-2.1,2.12,2.12,0,0,0-1.85-.78,3.35,3.35,0,0,0-1.49.3,2.75,2.75,0,0,0-1,.79,3,3,0,0,0-.58,1.15,5,5,0,0,0-.18,1.35v7.7H79Z"/>
                            <path class="cls-2" d="M104.32,7A2,2,0,0,1,105,5.52a2.18,2.18,0,0,1,1.6-.63,2.37,2.37,0,0,1,1.64.6A2,2,0,0,1,108.85,7a2,2,0,0,1-.66,1.51,2.37,2.37,0,0,1-1.64.6,2.18,2.18,0,0,1-1.6-.63A2,2,0,0,1,104.32,7Zm.5,4.79h3.53V25.91h-3.53Z"/>
                            <path class="cls-2" d="M122.05,16a5.78,5.78,0,0,0-1.29-1,2.88,2.88,0,0,0-1.39-.38,4.18,4.18,0,0,0-1.73.35,4.05,4.05,0,0,0-1.31.95,3.89,3.89,0,0,0-.82,1.35,4.63,4.63,0,0,0,0,3.17,4,4,0,0,0,.82,1.36,4,4,0,0,0,3,1.29,3.43,3.43,0,0,0,1.53-.34,3.34,3.34,0,0,0,1.21-1l2.35,2.52a5.35,5.35,0,0,1-1.22.92,8.14,8.14,0,0,1-1.4.61,8.34,8.34,0,0,1-1.35.34,7,7,0,0,1-1.12.1,8.26,8.26,0,0,1-3-.53,6.92,6.92,0,0,1-4.08-3.83,7.5,7.5,0,0,1-.6-3,7.51,7.51,0,0,1,.6-3A6.92,6.92,0,0,1,116.38,12a8.26,8.26,0,0,1,3-.53,7.74,7.74,0,0,1,2.72.51,6.26,6.26,0,0,1,2.4,1.63Z"/>
                            <polyline class="cls-1" points="5.38 19.99 5.38 19.99 3.72 21.66 3.72 21.66"/>
                            <path class="cls-1" d="M5.38,5.38A10.34,10.34,0,0,1,20,5.38l1.67-1.66A12.69,12.69,0,0,0,3.72,21.66L5.38,20A10.32,10.32,0,0,1,5.38,5.38Z"/>
                            <path class="cls-2" d="M7.13,7.13a7.86,7.86,0,0,0,0,11.12L18.25,7.13A7.86,7.86,0,0,0,7.13,7.13Z"/>
                            <line class="cls-2" x1="0.94" y1="27.93" x2="2.61" y2="26.26"/>
                            <line class="cls-2" x1="17.22" y1="11.65" x2="18.88" y2="9.98"/>
                            <path class="cls-2" d="M18.88,10l-1.66,1.67A10.33,10.33,0,0,1,2.61,26.26L.94,27.93A12.69,12.69,0,0,0,18.88,10Z"/>
                            <path class="cls-1" d="M15.47,24.51a7.86,7.86,0,0,0,0-11.12L4.35,24.51A7.86,7.86,0,0,0,15.47,24.51Z"/>
                        </svg>