<svg id="Layer_1" width="1000" data-name="Layer 1" xmlns="http://www.w3.org/2000/svg" viewBox="0 0 22.4 31.64">
                            <defs>
                                <style>
                                    .cls-1 {
                                        fill: #0082cb;
                                    }

                                    .cls-2 {
                                        fill: #ffd040;
                                    }
                                </style>
                            </defs>
                            <polyline class="cls-1" points="5.38 19.99 5.38 19.99 3.72 21.66 3.72 21.66"/>
                            <path class="cls-1" d="M5.38,5.38A10.34,10.34,0,0,1,20,5.38l1.67-1.66A12.69,12.69,0,0,0,3.72,21.66L5.38,20A10.32,10.32,0,0,1,5.38,5.38Z"/>
                            <path class="cls-2" d="M7.13,7.13a7.86,7.86,0,0,0,0,11.12L18.25,7.13A7.86,7.86,0,0,0,7.13,7.13Z"/>
                            <line class="cls-2" x1="0.94" y1="27.93" x2="2.61" y2="26.26"/>
                            <line class="cls-2" x1="17.22" y1="11.65" x2="18.88" y2="9.98"/>
                            <path class="cls-2" d="M18.88,10l-1.66,1.67A10.33,10.33,0,0,1,2.61,26.26L.94,27.93A12.69,12.69,0,0,0,18.88,10Z"/>
                            <path class="cls-1" d="M15.47,24.51a7.86,7.86,0,0,0,0-11.12L4.35,24.51A7.86,7.86,0,0,0,15.47,24.51Z"/>
                        </svg>